# xmcd CD database file
#
# Track frame offsets:
#	150
#	21675
#	46125
#	71025
#	97566
#	120891
#	134766
#	150441
#	168583
#	182611
#	208861
#	231286
#	246667
#	260842
#	277643
#	293178
#
# Disc length: 4125 seconds
#
# Revision: 2
# Processed by: cddbd v1.5.2PL0 Copyright (c) Steve Scherf et al.
# Submitted via: CDex 1.51
#
DISCID=e9101b10
DTITLE=Ramiro Naka - Gumbe Blues Kréol
DYEAR=2008
DGENRE=Blues
TTITLE0=Naka no blues kréol
TTITLE1=Mamyblues oh secour
TTITLE2=Vida bem vivida
TTITLE3=Kalikukabas
TTITLE4=Alma de musyka
TTITLE5=Na minha aldeia
TTITLE6=Afrikan ban
TTITLE7=Kabas namusika
TTITLE8=Je pars mercredi
TTITLE9=Travailleur émigré  (Duo avec Princess Erika)
TTITLE10=Bonitasco
TTITLE11=Angola hey
TTITLE12=Kaly de sahel
TTITLE13=Kabas garande
TTITLE14=Mon na kabas
TTITLE15=Franca tem
EXTD=YEAR: 2008
EXTT0=
EXTT1=
EXTT2=
EXTT3=
EXTT4=
EXTT5=
EXTT6=
EXTT7=
EXTT8=
EXTT9=
EXTT10=
EXTT11=
EXTT12=
EXTT13=
EXTT14=
EXTT15=
PLAYORDER=
